# xmcd
#
# Track frame offsets:
#	150
#	16870
#	34145
#	49458
#	65189
#	80746
#	97340
#	108011
#	119574
#	134194
#	147315
#	160375
#	174509
#	189942
#
# Disc length: 2722 seconds
#
# Revision: 0
# Processed by: cddbd v1.5.1PL0 Copyright (c) Steve Scherf et al.
# Submitted via: dBpowerAMP V4.0
#
DISCID=d40aa00e
DTITLE=Chris English - Lowdown in the House
DYEAR=2003
DGENRE=Blues
TTITLE0=Bring It On Home
TTITLE1=Traveling Riverside Blues
TTITLE2=Eddie The Bird
TTITLE3=Two Trains Running
TTITLE4=My Little Man
TTITLE5=I'm A King Bee
TTITLE6=Angels In The Snow
TTITLE7=Ride With Me Tonight
TTITLE8=Come In My Kitchen
TTITLE9=Long Distance Call
TTITLE10=Keep Up With You
TTITLE11=Red Rooster
TTITLE12=Dust My Blues
TTITLE13=Preaching Blues
EXTD=Lowdown Records\nwww.brolow.com\n
EXTT0=
EXTT1=
EXTT2=
EXTT3=
EXTT4=
EXTT5=
EXTT6=
EXTT7=
EXTT8=
EXTT9=
EXTT10=
EXTT11=
EXTT12=
EXTT13=
PLAYORDER=
